<?xml version="1.0" encoding="UTF-8" standalone="no"?>
<svg
   xmlns:dc="http://purl.org/dc/elements/1.1/"
   xmlns:cc="http://creativecommons.org/ns#"
   xmlns:rdf="http://www.w3.org/1999/02/22-rdf-syntax-ns#"
   xmlns:svg="http://www.w3.org/2000/svg"
   xmlns="http://www.w3.org/2000/svg"
   xmlns:sodipodi="http://sodipodi.sourceforge.net/DTD/sodipodi-0.dtd"
   xmlns:inkscape="http://www.inkscape.org/namespaces/inkscape"
   viewBox="0 0 22 22"
   id="svg"
   version="1.1"
   inkscape:version="0.92.4 (5da689c313, 2019-01-14)"
   width="100%"
   height="100%"
   sodipodi:docname="slc.svgz">
  <defs
     id="defs81">
    <style
       id="current-color-scheme"
       type="text/css">
      .ColorScheme-Text {
        color:#7B7C7E;
      }
      .ColorScheme-Background{
        color:#EFF0F1;
      }
      .ColorScheme-Highlight{
        color:#3DAEE6;
      }
      .ColorScheme-ViewText {
        color:#7B7C7E;
      }
      .ColorScheme-ViewBackground{
        color:#FCFCFC;
      }
      .ColorScheme-ViewHover {
        color:#3DAEE6;
      }
      .ColorScheme-ViewFocus{
        color:#1E92FF;
      }
      .ColorScheme-ButtonText {
        color:#7B7C7E;
      }
      .ColorScheme-ButtonBackground{
        color:#EFF0F1;
      }
      .ColorScheme-ButtonHover {
        color:#3DAEE6;
      }
      .ColorScheme-ButtonFocus{
        color:#1E92FF;
      }
</style>
  </defs>
  <metadata
     id="metadata34">
    <rdf:RDF>
      <cc:Work
         rdf:about="">
        <dc:format>image/svg+xml</dc:format>
        <dc:type
           rdf:resource="http://purl.org/dc/dcmitype/StillImage" />
        <dc:title />
      </cc:Work>
    </rdf:RDF>
  </metadata>
  <sodipodi:namedview
     pagecolor="#3daee9"
     bordercolor="#666666"
     borderopacity="1"
     objecttolerance="10"
     gridtolerance="10"
     guidetolerance="10"
     inkscape:pageopacity="0.12156863"
     inkscape:pageshadow="2"
     inkscape:window-width="1280"
     inkscape:window-height="978"
     id="namedview32"
     showgrid="true"
     inkscape:zoom="2.4564012"
     inkscape:cx="138.85933"
     inkscape:cy="-40.8037"
     inkscape:window-x="0"
     inkscape:window-y="0"
     inkscape:window-maximized="1"
     inkscape:current-layer="svg"
     borderlayer="true"
     showguides="true"
     inkscape:guide-bbox="true"
     inkscape:snap-bbox="true"
     inkscape:bbox-nodes="true">
    <inkscape:grid
       type="xygrid"
       id="grid3046"
       empspacing="4"
       visible="true"
       enabled="true"
       snapvisiblegridlinesonly="true"
       color="#0000ff"
       opacity="0.03921569"
       empcolor="#0000ff"
       empopacity="0.07843137" />
    <sodipodi:guide
       orientation="0,1"
       position="10,19"
       id="guide3820"
       inkscape:locked="false" />
    <sodipodi:guide
       orientation="0,1"
       position="11,3"
       id="guide3822"
       inkscape:locked="false" />
    <sodipodi:guide
       orientation="1,0"
       position="11,19.533825"
       id="guide3824"
       inkscape:locked="false" />
    <sodipodi:guide
       orientation="0,1"
       position="11,11"
       id="guide3826"
       inkscape:locked="false" />
  </sodipodi:namedview>
  <g
     id="slc-like"
     transform="translate(-1,-41)">
    <rect
       y="1"
       x="1"
       height="22"
       width="22"
       id="rect3791"
       style="fill:#ffffff;fill-opacity:0;stroke:none" />
    <path
       style="fill:currentColor"
       d="M 8,4 C 5.2385763,4 3,6.2385763 3,9 c 0,5 7,9 9,11 2,-2 9,-6 9,-11 C 21,6.2385763 18.761424,4 16,4 14.360405,4 12.911811,4.7807653 12,6 11.088189,4.7807653 9.6395954,4 8,4 z m 0,2 c 3,0 4,2 4,2 0,0 1,-2 4,-2 1.656854,0 3,1.3431458 3,3 0,4 -5,7 -7,9 C 10,16 5,13 5,9 5,7.3431458 6.3431458,6 8,6 z"
       id="path3795"
       inkscape:connector-curvature="0"
       sodipodi:nodetypes="sscsscsscsscss"
       class="ColorScheme-Text" />
  </g>
  <g
     id="slc-share"
     transform="translate(39,-1)">
    <rect
       y="1"
       x="1"
       height="22"
       width="22"
       id="rect3833"
       style="fill:#ffffff;fill-opacity:0;stroke:none" />
    <path
       inkscape:connector-curvature="0"
       class="ColorScheme-Text"
       id="path3837"
       d="m 18,4 c -1.656854,0 -3,1.3431458 -3,3 0,0.087382 0.02393,0.1645141 0.03125,0.25 l -6.75,2.8125 C 7.730971,9.4152177 6.9161429,9 6,9 4.3431458,9 3,10.343146 3,12 c 0,1.656854 1.3431458,3 3,3 0.9161429,0 1.730971,-0.415218 2.28125,-1.0625 l 6.75,2.8125 C 15.023929,16.835486 15,16.912618 15,17 c 0,1.656854 1.343146,3 3,3 1.656854,0 3,-1.343146 3,-3 0,-1.656854 -1.343146,-3 -3,-3 -0.916143,0 -1.730971,0.415218 -2.28125,1.0625 L 8.96875,12.25 C 8.9760708,12.164514 9,12.087382 9,12 9,11.912618 8.9760708,11.835486 8.96875,11.75 l 6.75,-2.8125 C 16.269029,9.5847823 17.083857,10 18,10 19.656854,10 21,8.6568542 21,7 21,5.3431458 19.656854,4 18,4 z m 0,2 c 0.552285,0 1,0.4477153 1,1 0,0.5522847 -0.447715,1 -1,1 C 17.447715,8 17,7.5522847 17,7 17,6.4477153 17.447715,6 18,6 z M 6,11 c 0.5522847,0 1,0.447715 1,1 0,0.552285 -0.4477153,1 -1,1 -0.5522847,0 -1,-0.447715 -1,-1 0,-0.552285 0.4477153,-1 1,-1 z m 12,5 c 0.552285,0 1,0.447715 1,1 0,0.552285 -0.447715,1 -1,1 -0.552285,0 -1,-0.447715 -1,-1 0,-0.552285 0.447715,-1 1,-1 z"
       style="fill:currentColor" />
  </g>
  <g
     id="slc-connect"
     transform="translate(-1,-1)">
    <rect
       style="fill:#ffffff;fill-opacity:0;stroke:none"
       id="rect3009"
       width="22"
       height="22"
       x="1"
       y="1" />
    <path
       style="color:#7b7c7e;fill:currentColor;stroke-width:1"
       d="M 10.249997,9.9999999 C 9.7634439,10.486563 9.6645467,11.355432 10.230446,12.304684 L 7.5742114,14.082038 C 7.243958,13.948772 6.8894667,13.849423 6.539057,13.84765 6.0835814,13.84485 5.6406194,13.984371 5.2499944,14.375 L 7.1249936,16.25 4.6249949,18.75 3.999995,20 l 1.2499994,-0.625 2.4999988,-2.5 1.8749991,1.875 c 0.6918517,-0.69185 0.6029597,-1.56735 0.2929602,-2.324225 l 1.7773595,-2.656237 c 0.949248,0.565912 1.818129,0.467017 2.304683,-0.01954 z"
       id="rect3845"
       inkscape:connector-curvature="0"
       class="ColorScheme-Text" />
  </g>
</svg>
